<svg width="800" height="800" viewBox="0 -0.32 49.08 49.08" data-name="Layer 1" xmlns="http://www.w3.org/2000/svg" fill="orange"><path d="M15.27 26.69c-1.43-8.16-3-16-4.65-23.14a41 41 0 0 0-4.3 2.56 4.2 4.2 0 0 0-1.24 1.35 1.65 1.65 0 0 0-.23 1.32c1.8 4.86 3.62 10.65 5.34 17 1 .1 2.6.56 5.08.91m15.34-.05c1.08-8.59 2.32-17 3.69-25A29.3 29.3 0 0 0 27.06.05q-.32 13.5-.62 27c1.43-.14 2.79-.33 4.17-.41m-7.64.58q-.3-13.64-.62-27.23a29.3 29.3 0 0 0-7.24 1.59c1.43 8.14 2.63 16.64 3.71 25.37ZM44.54 8.78a1.65 1.65 0 0 0-.23-1.32 4.2 4.2 0 0 0-1.24-1.35 42 42 0 0 0-4.3-2.56c-1.64 7.06-3.19 14.8-4.6 22.84 1.53-.25 3.26-.54 5.06-.8 1.73-6.24 3.54-11.98 5.31-16.81m-3.4 24.38-.35 4A4.29 4.29 0 0 1 37.45 41a56.7 56.7 0 0 1-13.4 1.48c-2.93 0-10.09-.18-13.4-1.83a4.34 4.34 0 0 1-2.37-3.43l-.34-4c-5 1.49-7.94 4-7.94 6.92 0 5.41 12.64 8.33 24.54 8.33s24.54-2.92 24.54-8.33c0-2.92-2.98-5.49-7.94-6.98"/><path d="M23.89 28.36a64.2 64.2 0 0 1-13.7-1.23l.85 9.82a1.57 1.57 0 0 0 .85 1.27c2.27 1.13 7.77 1.54 12.16 1.54a53.7 53.7 0 0 0 12.79-1.44 1.53 1.53 0 0 0 1.2-1.37l.86-10.06a70.3 70.3 0 0 1-15.01 1.47m-7.16 7.68-1.92-1-1.92 1 .37-2.13-1.55-1.52 2.14-.31 1-1.94 1 1.94 2.14.31-1.55 1.52Zm9.93.18-2.12-.9-2.12.9.18-2.37-1.48-1.81 2.22-.56 1.2-2 1.2 2 2.22.56-1.48 1.81Zm9.17-2.31.37 2.13-1.92-1-1.91 1 .36-2.13-1.55-1.52 2.14-.31 1-1.94 1 1.94 2.15.31Z"/></svg>